<svg width="27" height="27" viewBox="0 0 27 27" fill="none" xmlns="http://www.w3.org/2000/svg">
<path fill-rule="evenodd" clip-rule="evenodd" d="M10.7664 9.7751H14.8143V11.7914C15.3974 10.6318 16.8927 9.58982 19.1389 9.58982C23.4451 9.58982 24.4674 11.8982 24.4674 16.1335V23.9774H20.1079V17.098C20.1079 14.6861 19.5248 13.326 18.0403 13.326C15.9815 13.326 15.126 14.7919 15.126 17.097V23.9774H10.7664V9.7751ZM3.29091 23.7921H7.65046V9.58982H3.29091V23.7921ZM8.27496 4.9589C8.27512 5.32431 8.20265 5.68611 8.06177 6.02327C7.92088 6.36042 7.71438 6.66622 7.45428 6.92287C6.92721 7.4467 6.21378 7.73991 5.47069 7.73811C4.7289 7.73761 4.01712 7.44514 3.48927 6.92396C3.23011 6.66644 3.02431 6.3603 2.88367 6.0231C2.74303 5.68589 2.67031 5.32425 2.66968 4.9589C2.66968 4.22104 2.96395 3.5148 3.49036 2.99383C4.01774 2.47195 4.72982 2.17936 5.47178 2.17969C6.21508 2.17969 6.92786 2.47287 7.45428 2.99383C7.9796 3.5148 8.27496 4.22104 8.27496 4.9589Z" fill="white"/>
</svg>
