<svg width="24" height="24" viewBox="0 0 24 24" fill="none" xmlns="http://www.w3.org/2000/svg">
<g clip-path="url(#clip0_268_12)">
<path d="M23.0368 4.76577C22.2318 5.12249 21.3669 5.36353 20.4578 5.47247C21.3959 4.91115 22.0977 4.02769 22.4323 2.98695C21.5509 3.51046 20.5863 3.87895 19.5804 4.07641C18.9039 3.35415 18.008 2.87542 17.0316 2.71455C16.0551 2.55369 15.0529 2.71968 14.1805 3.18676C13.3081 3.65385 12.6143 4.39589 12.2069 5.29768C11.7994 6.19947 11.7011 7.21056 11.9271 8.17397C10.1413 8.0843 8.3942 7.62012 6.79933 6.81156C5.20446 6.003 3.79743 4.86812 2.66955 3.48058C2.2839 4.14583 2.06215 4.91713 2.06215 5.73857C2.06172 6.47806 2.24383 7.20621 2.59231 7.85844C2.94079 8.51066 3.44487 9.06679 4.05983 9.47747C3.34664 9.45478 2.64918 9.26207 2.02551 8.91538V8.97323C2.02544 10.0104 2.3842 11.0156 3.04092 11.8184C3.69764 12.6211 4.61186 13.1719 5.62847 13.3774C4.96687 13.5564 4.27323 13.5828 3.59994 13.4545C3.88677 14.3469 4.44548 15.1273 5.19786 15.6864C5.95024 16.2455 6.85862 16.5553 7.79583 16.5725C6.20486 17.8214 4.24001 18.4989 2.21738 18.4959C1.85909 18.496 1.5011 18.4751 1.14526 18.4333C3.19836 19.7533 5.5883 20.4539 8.02915 20.4512C16.2917 20.4512 20.8087 13.6078 20.8087 7.67262C20.8087 7.47979 20.8039 7.28504 20.7952 7.09221C21.6738 6.45683 22.4322 5.67002 23.0349 4.76866L23.0368 4.76577Z" fill="white"/>
</g>
<defs>
<clipPath id="clip0_268_12">
<rect width="23.1391" height="23.1391" fill="white" transform="translate(0.241943 0.00585938)"/>
</clipPath>
</defs>
</svg>
