<svg width="23" height="23" viewBox="0 0 23 23" fill="none" xmlns="http://www.w3.org/2000/svg">
<circle cx="11.8905" cy="10.8773" r="7.12698" fill="white"/>
<path d="M9.79019 13.4331L7.31418 10.957C7.10548 10.7483 6.84934 10.644 6.54577 10.644C6.24219 10.644 5.97657 10.7578 5.74889 10.9855C5.54018 11.1942 5.43583 11.4598 5.43583 11.7824C5.43583 12.1049 5.54018 12.3705 5.74889 12.5793L8.99331 15.8237C9.20202 16.0324 9.46764 16.1367 9.79019 16.1367C10.1127 16.1367 10.3784 16.0324 10.5871 15.8237L17.0475 9.36329C17.2562 9.15459 17.3605 8.89845 17.3605 8.59488C17.3605 8.2913 17.2467 8.02568 17.019 7.798C16.8103 7.58929 16.5447 7.48494 16.2221 7.48494C15.8996 7.48494 15.6339 7.58929 15.4252 7.798L9.79019 13.4331ZM11.3839 22.7679C9.80916 22.7679 8.32925 22.4689 6.9442 21.8708C5.55916 21.2736 4.35436 20.4626 3.3298 19.4381C2.30525 18.4135 1.49433 17.2087 0.897055 15.8237C0.299018 14.4386 0 12.9587 0 11.3839C0 9.80916 0.299018 8.32925 0.897055 6.9442C1.49433 5.55916 2.30525 4.35436 3.3298 3.3298C4.35436 2.30525 5.55916 1.49395 6.9442 0.895916C8.32925 0.298639 9.80916 0 11.3839 0C12.9587 0 14.4386 0.298639 15.8237 0.895916C17.2087 1.49395 18.4135 2.30525 19.4381 3.3298C20.4626 4.35436 21.2736 5.55916 21.8708 6.9442C22.4689 8.32925 22.7679 9.80916 22.7679 11.3839C22.7679 12.9587 22.4689 14.4386 21.8708 15.8237C21.2736 17.2087 20.4626 18.4135 19.4381 19.4381C18.4135 20.4626 17.2087 21.2736 15.8237 21.8708C14.4386 22.4689 12.9587 22.7679 11.3839 22.7679Z" fill="#E94E33"/>
</svg>
