<svg width="100" height="18" viewBox="0 0 100 18" fill="none" xmlns="http://www.w3.org/2000/svg">
<path fill-rule="evenodd" clip-rule="evenodd" d="M8.65145 0L10.6938 6.85252L17.3029 6.85252L11.956 11.0876L13.9983 17.9401L8.65145 13.705L3.30456 17.9401L5.34689 11.0876L0 6.85252L6.60912 6.85252L8.65145 0ZM49.9999 0L52.0422 6.85252L58.6513 6.85252L53.3044 11.0876L55.3468 17.9401L49.9999 13.705L44.653 17.9401L46.6953 11.0876L41.3484 6.85252L47.9575 6.85252L49.9999 0ZM31.3683 6.85252L29.3259 0L27.2836 6.85252L20.6745 6.85252L26.0214 11.0876L23.979 17.9401L29.3259 13.705L34.6728 17.9401L32.6305 11.0876L37.9774 6.85252L31.3683 6.85252ZM70.6743 0L72.7167 6.85252L79.3258 6.85252L73.9789 11.0876L76.0212 17.9401L70.6743 13.705L65.3274 17.9401L67.3698 11.0876L62.0229 6.85252L68.632 6.85252L70.6743 0ZM93.3909 6.85252L91.3486 0L89.3063 6.85252L82.6971 6.85252L88.044 11.0876L86.0017 17.9401L91.3486 13.705L96.6955 17.9401L94.6532 11.0876L100 6.85252L93.3909 6.85252Z" fill="#E94E33"/>
</svg>
