<svg width="23" height="19" viewBox="0 0 23 19" fill="none" xmlns="http://www.w3.org/2000/svg">
<path d="M22.0368 2.76577C21.2318 3.12249 20.3669 3.36353 19.4578 3.47247C20.3959 2.91115 21.0977 2.02769 21.4323 0.986946C20.5509 1.51046 19.5863 1.87895 18.5804 2.07641C17.9039 1.35415 17.008 0.875421 16.0316 0.714554C15.0551 0.553687 14.0529 0.719681 13.1805 1.18676C12.3081 1.65385 11.6143 2.39589 11.2069 3.29768C10.7994 4.19947 10.7011 5.21056 10.9271 6.17397C9.14126 6.0843 7.3942 5.62012 5.79933 4.81156C4.20446 4.003 2.79743 2.86812 1.66955 1.48058C1.2839 2.14583 1.06215 2.91713 1.06215 3.73857C1.06172 4.47806 1.24383 5.20621 1.59231 5.85844C1.94079 6.51066 2.44487 7.06679 3.05983 7.47747C2.34664 7.45478 1.64918 7.26207 1.02551 6.91538V6.97323C1.02544 8.01038 1.3842 9.01562 2.04092 9.81837C2.69764 10.6211 3.61186 11.1719 4.62847 11.3774C3.96687 11.5564 3.27323 11.5828 2.59994 11.4545C2.88677 12.3469 3.44548 13.1273 4.19786 13.6864C4.95024 14.2455 5.85862 14.5553 6.79583 14.5725C5.20486 15.8214 3.24001 16.4989 1.21738 16.4959C0.859087 16.496 0.501101 16.4751 0.145264 16.4333C2.19836 17.7533 4.5883 18.4539 7.02915 18.4512C15.2917 18.4512 19.8087 11.6078 19.8087 5.67262C19.8087 5.47979 19.8039 5.28504 19.7952 5.09221C20.6738 4.45683 21.4322 3.67002 22.0349 2.76866L22.0368 2.76577Z" fill="white"/>
</svg>
