<svg width="28" height="28" viewBox="0 0 28 28" fill="none" xmlns="http://www.w3.org/2000/svg">
<path fill-rule="evenodd" clip-rule="evenodd" d="M6.78856 13.4078C7.61743 14.8679 8.5717 16.2711 9.81252 17.55C11.0561 18.8376 12.6016 20.008 14.6053 21.0068C14.7538 21.0778 14.8952 21.0778 15.0206 21.0294C15.2109 20.9579 15.405 20.8047 15.5964 20.6171C15.7449 20.4725 15.9286 20.2413 16.1222 19.9881C16.8917 18.9967 17.846 17.7683 19.1918 18.3828C19.2215 18.3962 19.2441 18.4113 19.2738 18.4247L23.7652 20.9493C23.7773 20.9558 23.7943 20.9719 23.8075 20.9778C24.4004 21.3762 24.6435 21.9907 24.6502 22.6852C24.6502 23.3938 24.3834 24.1895 23.9923 24.8625C23.4753 25.7496 22.7125 26.3372 21.8335 26.7275C20.9975 27.1038 20.0664 27.3054 19.1715 27.4344C17.7662 27.6371 16.4506 27.5081 15.1047 27.1033C13.788 26.7044 12.463 26.048 11.0143 25.1738L10.907 25.1066C10.2432 24.7023 9.52541 24.2674 8.82195 23.7556C6.24185 21.8525 3.6161 19.1064 1.90612 16.0835C0.471691 13.546 -0.311523 10.8069 0.116935 8.19519C0.353439 6.76355 0.981551 5.46202 2.07662 4.60292C3.03089 3.85135 4.31736 3.43955 5.98225 3.58363C6.17365 3.59599 6.34415 3.70566 6.4327 3.86533L9.31091 8.62313C9.73277 9.15697 9.78447 9.6849 9.55511 10.2134C9.36316 10.6483 8.97925 11.0466 8.45289 11.4208C8.29779 11.5498 8.11299 11.681 7.91993 11.8186C7.27587 12.2756 6.54491 12.8025 6.79516 13.4234L6.78856 13.4078ZM12.1517 11.1364C11.7073 11.0246 11.44 10.58 11.555 10.1456C11.6699 9.71124 12.1242 9.44996 12.5686 9.56232C13.9167 9.90585 15.1845 10.6193 16.2102 11.5552C17.2421 12.4971 18.0423 13.6739 18.4466 14.9357C18.583 15.3652 18.3377 15.8222 17.8988 15.9555C17.4599 16.0894 16.9918 15.8496 16.8554 15.4206C16.5391 14.433 15.9022 13.5019 15.0756 12.7471C14.2423 11.9864 13.2231 11.4095 12.1517 11.1364ZM12.2623 6.15069C11.8085 6.07542 11.5038 5.65394 11.5808 5.21042C11.6573 4.76743 12.089 4.46906 12.5422 4.54433C15.0838 4.97441 17.4967 6.23563 19.4311 8.00542C21.3666 9.77521 22.8313 12.0595 23.4753 14.5352C23.5886 14.9717 23.3186 15.4158 22.872 15.5265C22.4254 15.6373 21.971 15.3733 21.8577 14.9368C21.2912 12.7605 20.0015 10.7494 18.2964 9.1903C16.5952 7.63394 14.4805 6.52647 12.2623 6.15069ZM12.798 1.6246C12.3409 1.57352 12.0126 1.16925 12.0648 0.722497C12.1171 0.275748 12.5301 -0.045739 12.9872 0.00533343C16.543 0.4123 19.8843 2.0063 22.5293 4.34971C25.1809 6.69851 27.14 9.80693 27.9205 13.232C28.0195 13.6696 27.7363 14.104 27.288 14.2008C26.8403 14.2975 26.3959 14.0207 26.2969 13.5825C25.5929 10.494 23.8191 7.6834 21.4144 5.55395C19.0202 3.4331 16.0023 1.99071 12.798 1.6246Z" fill="#E94E33"/>
</svg>
