<svg width="23" height="22" viewBox="0 0 23 22" fill="none" xmlns="http://www.w3.org/2000/svg">
<path fill-rule="evenodd" clip-rule="evenodd" d="M8.76644 7.7751H12.8143V9.79139C13.3974 8.63175 14.8927 7.58982 17.1389 7.58982C21.4451 7.58982 22.4674 9.8982 22.4674 14.1335V21.9774H18.1079V15.098C18.1079 12.6861 17.5248 11.326 16.0403 11.326C13.9815 11.326 13.126 12.7919 13.126 15.097V21.9774H8.76644V7.7751ZM1.29091 21.7921H5.65046V7.58982H1.29091V21.7921ZM6.27496 2.9589C6.27512 3.32431 6.20265 3.68611 6.06177 4.02327C5.92088 4.36042 5.71438 4.66622 5.45428 4.92287C4.92721 5.4467 4.21378 5.73991 3.47069 5.73811C2.7289 5.73761 2.01712 5.44514 1.48927 4.92396C1.23011 4.66644 1.02431 4.3603 0.88367 4.0231C0.743029 3.68589 0.670309 3.32425 0.669678 2.9589C0.669678 2.22104 0.963947 1.5148 1.49036 0.993833C2.01774 0.47195 2.72982 0.179361 3.47178 0.179688C4.21508 0.179688 4.92786 0.472867 5.45428 0.993833C5.9796 1.5148 6.27496 2.22104 6.27496 2.9589Z" fill="white"/>
</svg>
