<svg width="250" height="73" viewBox="0 0 250 73" fill="none" xmlns="http://www.w3.org/2000/svg">
<path d="M8.01623 17.3883C2.80568 21.3228 1.16903 27.5896 1.00203 30.7044H0L1.00203 10.5402H42.5862V11.5238L7.0142 73H3.06175L38.1327 12.962H22.5456C19.8736 12.7981 13.2268 13.4538 8.01623 17.3883Z" fill="#002243"/>
<path d="M34.57 56.6883C39.7805 52.7539 41.4171 46.487 41.5842 43.3722L42.5862 43.3722L41.5842 63.5364L-2.67029e-05 63.5364L-2.66169e-05 62.5528L35.572 1.07664L39.5244 1.07664L4.45343 61.1146L20.0405 61.1146C22.7126 61.2786 29.3594 60.6228 34.57 56.6883Z" fill="#002243"/>
<path d="M86.573 39.484C86.7163 39.484 86.788 39.57 86.788 39.742C86.788 39.914 86.7163 40 86.573 40C86.0283 40 85.154 39.9713 83.95 39.914C82.746 39.8567 81.8717 39.828 81.327 39.828C80.6103 39.828 79.7647 39.8567 78.79 39.914C77.8153 39.9713 77.0557 40 76.511 40C76.3963 40 76.339 39.914 76.339 39.742C76.339 39.57 76.3963 39.484 76.511 39.484C77.3423 39.484 77.9443 39.398 78.317 39.226C78.7183 39.0253 78.919 38.71 78.919 38.28C78.919 37.85 78.6753 37.119 78.188 36.087L73.544 26.67H65.761L62.45 34.109C62.0773 34.969 61.891 35.743 61.891 36.431C61.891 37.4343 62.2493 38.194 62.966 38.71C63.6827 39.226 64.686 39.484 65.976 39.484C66.1193 39.484 66.191 39.57 66.191 39.742C66.191 39.914 66.1193 40 65.976 40C65.46 40 64.7147 39.9713 63.74 39.914C62.6507 39.8567 61.7047 39.828 60.902 39.828C60.128 39.828 59.225 39.8567 58.193 39.914C57.2757 39.9713 56.516 40 55.914 40C55.7707 40 55.699 39.914 55.699 39.742C55.699 39.57 55.7707 39.484 55.914 39.484C56.7167 39.484 57.3903 39.3263 57.935 39.011C58.4797 38.6957 59.01 38.1367 59.526 37.334C60.042 36.5027 60.6583 35.2843 61.375 33.679L70.62 12.867C70.6773 12.781 70.8063 12.738 71.007 12.738C71.2077 12.738 71.3223 12.781 71.351 12.867L81.886 34.109C82.8893 36.173 83.7207 37.592 84.38 38.366C85.068 39.1113 85.799 39.484 86.573 39.484ZM66.234 25.595H73.028L69.459 18.371L66.234 25.595ZM95.5143 36.345C95.5143 37.2623 95.6146 37.936 95.8153 38.366C96.0446 38.7673 96.4603 39.054 97.0623 39.226C97.693 39.398 98.6676 39.484 99.9863 39.484C100.072 39.484 100.115 39.57 100.115 39.742C100.115 39.914 100.072 40 99.9863 40C98.811 40 97.8936 39.9857 97.2343 39.957L93.4933 39.914L90.3973 39.957C89.8526 39.9857 89.1073 40 88.1613 40C88.0753 40 88.0323 39.914 88.0323 39.742C88.0323 39.57 88.0753 39.484 88.1613 39.484C89.136 39.484 89.8383 39.4123 90.2683 39.269C90.6983 39.1257 90.985 38.8533 91.1283 38.452C91.3003 38.0507 91.3863 37.4057 91.3863 36.517V16.608C91.3863 15.748 91.3003 15.1173 91.1283 14.716C90.985 14.3147 90.684 14.0423 90.2253 13.899C89.7953 13.727 89.1073 13.641 88.1613 13.641C88.0753 13.641 88.0323 13.555 88.0323 13.383C88.0323 13.211 88.0753 13.125 88.1613 13.125L90.3973 13.168C91.6586 13.2253 92.6763 13.254 93.4503 13.254C94.1096 13.254 94.9123 13.211 95.8583 13.125C96.2023 13.0963 96.661 13.0677 97.2343 13.039C97.8363 13.0103 98.5386 12.996 99.3413 12.996C102.179 12.996 104.415 13.598 106.049 14.802C107.712 16.006 108.543 17.855 108.543 20.349C108.543 22.155 108.07 23.6887 107.124 24.95C106.207 26.2113 105.017 27.1573 103.555 27.788C102.122 28.4187 100.646 28.734 99.1263 28.734C98.3236 28.734 97.65 28.6623 97.1053 28.519C97.0193 28.519 96.9763 28.4473 96.9763 28.304C96.9763 28.218 96.9906 28.132 97.0193 28.046C97.0766 27.96 97.134 27.9313 97.1913 27.96C97.65 28.0747 98.1516 28.132 98.6963 28.132C100.187 28.132 101.448 27.5157 102.48 26.283C103.512 25.0503 104.028 23.2873 104.028 20.994C104.028 18.7293 103.498 16.9807 102.437 15.748C101.377 14.4867 99.9146 13.856 98.0513 13.856C97.3633 13.856 96.833 13.9277 96.4603 14.071C96.1163 14.2143 95.8726 14.4867 95.7293 14.888C95.586 15.2607 95.5143 15.8627 95.5143 16.694V36.345ZM138.475 39.484C138.619 39.484 138.69 39.57 138.69 39.742C138.69 39.914 138.619 40 138.475 40C137.931 40 137.056 39.9713 135.852 39.914C134.648 39.8567 133.774 39.828 133.229 39.828C132.513 39.828 131.667 39.8567 130.692 39.914C129.718 39.9713 128.958 40 128.413 40C128.299 40 128.241 39.914 128.241 39.742C128.241 39.57 128.299 39.484 128.413 39.484C129.245 39.484 129.847 39.398 130.219 39.226C130.621 39.0253 130.821 38.71 130.821 38.28C130.821 37.85 130.578 37.119 130.09 36.087L125.446 26.67H117.663L114.352 34.109C113.98 34.969 113.793 35.743 113.793 36.431C113.793 37.4343 114.152 38.194 114.868 38.71C115.585 39.226 116.588 39.484 117.878 39.484C118.022 39.484 118.093 39.57 118.093 39.742C118.093 39.914 118.022 40 117.878 40C117.362 40 116.617 39.9713 115.642 39.914C114.553 39.8567 113.607 39.828 112.804 39.828C112.03 39.828 111.127 39.8567 110.095 39.914C109.178 39.9713 108.418 40 107.816 40C107.673 40 107.601 39.914 107.601 39.742C107.601 39.57 107.673 39.484 107.816 39.484C108.619 39.484 109.293 39.3263 109.837 39.011C110.382 38.6957 110.912 38.1367 111.428 37.334C111.944 36.5027 112.561 35.2843 113.277 33.679L122.522 12.867C122.58 12.781 122.709 12.738 122.909 12.738C123.11 12.738 123.225 12.781 123.253 12.867L133.788 34.109C134.792 36.173 135.623 37.592 136.282 38.366C136.97 39.1113 137.701 39.484 138.475 39.484ZM118.136 25.595H124.93L121.361 18.371L118.136 25.595ZM147.245 36.345C147.245 37.119 147.302 37.678 147.417 38.022C147.56 38.366 147.818 38.5953 148.191 38.71C148.563 38.8247 149.165 38.882 149.997 38.882H152.577C154.612 38.882 156.332 38.323 157.737 37.205C159.141 36.0583 160.073 34.5247 160.532 32.604C160.56 32.518 160.646 32.4893 160.79 32.518C160.933 32.518 161.005 32.561 161.005 32.647C160.747 35.3417 160.618 37.5777 160.618 39.355C160.618 39.5843 160.575 39.7563 160.489 39.871C160.403 39.957 160.231 40 159.973 40H139.849C139.791 40 139.763 39.914 139.763 39.742C139.763 39.57 139.791 39.484 139.849 39.484C140.823 39.484 141.526 39.4123 141.956 39.269C142.414 39.1257 142.715 38.8533 142.859 38.452C143.031 38.022 143.117 37.377 143.117 36.517V16.608C143.117 15.748 143.031 15.1173 142.859 14.716C142.715 14.3147 142.414 14.0423 141.956 13.899C141.497 13.727 140.795 13.641 139.849 13.641C139.791 13.641 139.763 13.555 139.763 13.383C139.763 13.211 139.791 13.125 139.849 13.125L142.042 13.168C143.303 13.2253 144.335 13.254 145.138 13.254C145.998 13.254 147.058 13.2253 148.32 13.168L150.47 13.125C150.556 13.125 150.599 13.211 150.599 13.383C150.599 13.555 150.556 13.641 150.47 13.641C149.524 13.641 148.821 13.727 148.363 13.899C147.933 14.0423 147.632 14.329 147.46 14.759C147.316 15.1603 147.245 15.791 147.245 16.651V36.345ZM192.309 39.484C192.453 39.484 192.524 39.57 192.524 39.742C192.524 39.914 192.453 40 192.309 40C191.765 40 190.89 39.9713 189.686 39.914C188.482 39.8567 187.608 39.828 187.063 39.828C186.347 39.828 185.501 39.8567 184.526 39.914C183.552 39.9713 182.792 40 182.247 40C182.133 40 182.075 39.914 182.075 39.742C182.075 39.57 182.133 39.484 182.247 39.484C183.079 39.484 183.681 39.398 184.053 39.226C184.455 39.0253 184.655 38.71 184.655 38.28C184.655 37.85 184.412 37.119 183.924 36.087L179.28 26.67H171.497L168.186 34.109C167.814 34.969 167.627 35.743 167.627 36.431C167.627 37.4343 167.986 38.194 168.702 38.71C169.419 39.226 170.422 39.484 171.712 39.484C171.856 39.484 171.927 39.57 171.927 39.742C171.927 39.914 171.856 40 171.712 40C171.196 40 170.451 39.9713 169.476 39.914C168.387 39.8567 167.441 39.828 166.638 39.828C165.864 39.828 164.961 39.8567 163.929 39.914C163.012 39.9713 162.252 40 161.65 40C161.507 40 161.435 39.914 161.435 39.742C161.435 39.57 161.507 39.484 161.65 39.484C162.453 39.484 163.127 39.3263 163.671 39.011C164.216 38.6957 164.746 38.1367 165.262 37.334C165.778 36.5027 166.395 35.2843 167.111 33.679L176.356 12.867C176.414 12.781 176.543 12.738 176.743 12.738C176.944 12.738 177.059 12.781 177.087 12.867L187.622 34.109C188.626 36.173 189.457 37.592 190.116 38.366C190.804 39.1113 191.535 39.484 192.309 39.484ZM171.97 25.595H178.764L175.195 18.371L171.97 25.595ZM209.82 12.652C211.11 12.652 212.443 12.7667 213.819 12.996C215.223 13.2253 216.327 13.5407 217.13 13.942C217.388 14.028 217.545 14.1427 217.603 14.286C217.689 14.4007 217.746 14.6157 217.775 14.931L218.291 20.521C218.291 20.607 218.219 20.6643 218.076 20.693C217.932 20.7217 217.846 20.6787 217.818 20.564C216.986 18.328 215.725 16.6223 214.034 15.447C212.371 14.2717 210.407 13.684 208.143 13.684C205.161 13.684 202.825 14.7303 201.134 16.823C199.442 18.9157 198.597 21.725 198.597 25.251C198.597 27.8883 199.055 30.3107 199.973 32.518C200.919 34.7253 202.209 36.474 203.843 37.764C205.505 39.054 207.354 39.699 209.39 39.699C213.26 39.699 216.198 37.291 218.205 32.475C218.233 32.3603 218.319 32.3173 218.463 32.346C218.635 32.3747 218.721 32.432 218.721 32.518L218.076 38.022C218.018 38.366 217.947 38.5953 217.861 38.71C217.803 38.796 217.646 38.8963 217.388 39.011C214.894 40.0143 212.242 40.516 209.433 40.516C205.935 40.516 203.026 39.828 200.704 38.452C198.382 37.0473 196.662 35.27 195.544 33.12C194.454 30.97 193.91 28.734 193.91 26.412C193.91 23.7173 194.641 21.3237 196.103 19.231C197.593 17.1383 199.557 15.5187 201.994 14.372C204.43 13.2253 207.039 12.652 209.82 12.652Z" fill="#002243"/>
<path d="M69.438 62H57.81V61.316C58.23 61.304 58.566 61.268 58.818 61.208C59.082 61.148 59.286 61.046 59.43 60.902C59.574 60.758 59.67 60.554 59.718 60.29C59.766 60.026 59.79 59.684 59.79 59.264V50.876C59.79 50.456 59.766 50.12 59.718 49.868C59.682 49.604 59.598 49.4 59.466 49.256C59.346 49.1 59.166 48.998 58.926 48.95C58.686 48.89 58.374 48.848 57.99 48.824V48.14H63.462V48.824C63.078 48.836 62.766 48.872 62.526 48.932C62.298 48.992 62.118 49.1 61.986 49.256C61.866 49.412 61.782 49.628 61.734 49.904C61.698 50.18 61.68 50.546 61.68 51.002V58.76C61.68 59.264 61.728 59.678 61.824 60.002C61.932 60.314 62.106 60.56 62.346 60.74C62.598 60.908 62.928 61.028 63.336 61.1C63.744 61.16 64.26 61.19 64.884 61.19C65.568 61.19 66.144 61.154 66.612 61.082C67.08 60.998 67.47 60.86 67.782 60.668C68.106 60.464 68.358 60.188 68.538 59.84C68.73 59.48 68.892 59.018 69.024 58.454H69.708L69.438 62ZM81.2021 56.978H76.3961C76.1921 57.47 76.0181 57.908 75.8741 58.292C75.7301 58.664 75.6101 58.988 75.5141 59.264C75.4301 59.54 75.3701 59.774 75.3341 59.966C75.2981 60.158 75.2801 60.314 75.2801 60.434C75.2801 60.77 75.3881 61.004 75.6041 61.136C75.8201 61.256 76.1801 61.316 76.6841 61.316V62H72.3101V61.316C72.5861 61.28 72.8201 61.232 73.0121 61.172C73.2161 61.112 73.3901 61.028 73.5341 60.92C73.6901 60.812 73.8221 60.674 73.9301 60.506C74.0501 60.326 74.1641 60.11 74.2721 59.858L78.9521 48.14H79.7261L83.8121 58.292C84.0881 58.964 84.3281 59.504 84.5321 59.912C84.7361 60.308 84.9341 60.608 85.1261 60.812C85.3181 61.016 85.5221 61.148 85.7381 61.208C85.9661 61.268 86.2361 61.298 86.5481 61.298V62H80.6801V61.298C81.3161 61.298 81.7541 61.238 81.9941 61.118C82.2341 60.998 82.3541 60.8 82.3541 60.524C82.3541 60.404 82.3481 60.296 82.3361 60.2C82.3241 60.092 82.3001 59.978 82.2641 59.858C82.2401 59.738 82.1981 59.606 82.1381 59.462C82.0901 59.306 82.0241 59.126 81.9401 58.922L81.2021 56.978ZM76.7561 56.078H80.8601L78.8621 50.768L76.7561 56.078ZM102.391 59.282L105.199 51.47C105.367 51.002 105.487 50.63 105.559 50.354C105.631 50.078 105.667 49.838 105.667 49.634C105.667 49.322 105.565 49.112 105.361 49.004C105.169 48.884 104.821 48.824 104.317 48.824V48.14H108.691V48.824C108.139 48.824 107.719 48.938 107.431 49.166C107.155 49.394 106.921 49.766 106.729 50.282L102.211 62.18H101.581L98.1252 51.938L94.2912 62.18H93.6612L89.9172 51.848C89.7012 51.272 89.5032 50.792 89.3232 50.408C89.1552 50.012 88.9692 49.7 88.7652 49.472C88.5732 49.244 88.3512 49.082 88.0992 48.986C87.8472 48.89 87.5412 48.842 87.1812 48.842V48.14H93.0492V48.842C92.4372 48.842 92.0052 48.896 91.7532 49.004C91.5132 49.112 91.3932 49.322 91.3932 49.634C91.3932 49.79 91.4172 49.97 91.4652 50.174C91.5132 50.378 91.5852 50.618 91.6812 50.894L94.4172 59.228L96.6312 53C96.7992 52.532 96.9612 52.1 97.1172 51.704C97.2852 51.296 97.4172 50.93 97.5132 50.606C97.3452 50.258 97.1892 49.97 97.0452 49.742C96.9132 49.514 96.7752 49.334 96.6312 49.202C96.4992 49.07 96.3552 48.98 96.1992 48.932C96.0552 48.872 95.8992 48.842 95.7312 48.842V48.14H101.239V48.842C100.891 48.842 100.609 48.854 100.393 48.878C100.177 48.902 100.009 48.944 99.8892 49.004C99.7812 49.052 99.7032 49.124 99.6552 49.22C99.6192 49.316 99.6012 49.43 99.6012 49.562C99.6012 49.742 99.6312 49.964 99.6912 50.228C99.7632 50.48 99.8592 50.804 99.9792 51.2L102.391 59.282ZM122.351 59.138C122.351 59.594 122.375 59.966 122.423 60.254C122.483 60.53 122.603 60.746 122.783 60.902C122.963 61.046 123.215 61.148 123.539 61.208C123.875 61.268 124.313 61.304 124.853 61.316V62H118.481V61.316C118.901 61.304 119.237 61.268 119.489 61.208C119.753 61.148 119.957 61.046 120.101 60.902C120.245 60.758 120.341 60.554 120.389 60.29C120.437 60.026 120.461 59.684 120.461 59.264V50.876C120.461 50.456 120.437 50.12 120.389 49.868C120.353 49.604 120.269 49.4 120.137 49.256C120.017 49.1 119.837 48.998 119.597 48.95C119.357 48.89 119.045 48.848 118.661 48.824V48.14H129.065L129.263 51.578H128.633C128.561 51.062 128.447 50.642 128.291 50.318C128.135 49.982 127.913 49.718 127.625 49.526C127.349 49.334 126.995 49.202 126.563 49.13C126.131 49.046 125.591 49.004 124.943 49.004H122.657C122.453 49.004 122.351 49.106 122.351 49.31V54.746C122.927 54.746 123.419 54.716 123.827 54.656C124.247 54.584 124.589 54.464 124.853 54.296C125.129 54.128 125.339 53.9 125.483 53.612C125.627 53.324 125.717 52.952 125.753 52.496H126.383V57.77H125.753C125.693 57.314 125.597 56.936 125.465 56.636C125.333 56.336 125.135 56.102 124.871 55.934C124.619 55.766 124.289 55.646 123.881 55.574C123.473 55.502 122.963 55.466 122.351 55.466V59.138ZM136.749 58.598C136.749 59.198 136.773 59.672 136.821 60.02C136.869 60.368 136.959 60.638 137.091 60.83C137.235 61.022 137.433 61.148 137.685 61.208C137.949 61.268 138.291 61.304 138.711 61.316V62H132.879V61.316C133.299 61.304 133.635 61.268 133.887 61.208C134.151 61.136 134.355 61.01 134.499 60.83C134.643 60.65 134.739 60.398 134.787 60.074C134.835 59.738 134.859 59.288 134.859 58.724V51.416C134.859 50.912 134.835 50.498 134.787 50.174C134.751 49.838 134.667 49.574 134.535 49.382C134.415 49.19 134.235 49.058 133.995 48.986C133.755 48.902 133.443 48.848 133.059 48.824V48.14H138.531V48.824C138.147 48.836 137.835 48.884 137.595 48.968C137.367 49.052 137.187 49.196 137.055 49.4C136.935 49.592 136.851 49.862 136.803 50.21C136.767 50.558 136.749 51.002 136.749 51.542V58.598ZM153.724 51.614C153.724 52.574 153.436 53.372 152.86 54.008C152.284 54.644 151.366 55.07 150.106 55.286L154.084 60.074C154.408 60.47 154.762 60.758 155.146 60.938C155.542 61.106 156.01 61.232 156.55 61.316V62H153.076L148.666 56.348C148.51 56.144 148.36 55.982 148.216 55.862C148.084 55.742 147.94 55.652 147.784 55.592C147.64 55.52 147.466 55.478 147.262 55.466C147.07 55.442 146.836 55.43 146.56 55.43V59.174C146.56 59.618 146.584 59.984 146.632 60.272C146.692 60.548 146.806 60.764 146.974 60.92C147.154 61.076 147.406 61.184 147.73 61.244C148.066 61.292 148.504 61.316 149.044 61.316V62H142.69V61.316C143.11 61.304 143.446 61.268 143.698 61.208C143.962 61.148 144.166 61.046 144.31 60.902C144.454 60.758 144.55 60.554 144.598 60.29C144.646 60.026 144.67 59.684 144.67 59.264V50.876C144.67 50.456 144.646 50.12 144.598 49.868C144.562 49.604 144.478 49.4 144.346 49.256C144.226 49.1 144.046 48.998 143.806 48.95C143.566 48.89 143.254 48.848 142.87 48.824V48.14H148.522C150.178 48.14 151.456 48.446 152.356 49.058C153.268 49.67 153.724 50.522 153.724 51.614ZM146.56 54.53H147.838C149.038 54.53 149.926 54.314 150.502 53.882C151.09 53.438 151.384 52.712 151.384 51.704C151.384 50.732 151.15 50.036 150.682 49.616C150.226 49.196 149.506 48.986 148.522 48.986H146.866C146.662 48.986 146.56 49.088 146.56 49.292V54.53ZM168.305 58.778L172.985 48.14H177.017V48.824C176.633 48.836 176.321 48.884 176.081 48.968C175.853 49.052 175.673 49.196 175.541 49.4C175.421 49.592 175.337 49.862 175.289 50.21C175.253 50.558 175.235 51.002 175.235 51.542V58.598C175.235 59.198 175.259 59.672 175.307 60.02C175.355 60.368 175.445 60.638 175.577 60.83C175.721 61.022 175.919 61.148 176.171 61.208C176.435 61.268 176.777 61.304 177.197 61.316V62H171.365V61.316C171.785 61.304 172.121 61.268 172.373 61.208C172.637 61.136 172.841 61.01 172.985 60.83C173.129 60.65 173.225 60.398 173.273 60.074C173.321 59.738 173.345 59.288 173.345 58.724V50.372H173.165L167.909 62.18H167.513L162.347 50.372H162.275V58.598C162.275 59.198 162.299 59.672 162.347 60.02C162.395 60.368 162.485 60.638 162.617 60.83C162.761 61.022 162.959 61.148 163.211 61.208C163.475 61.268 163.817 61.304 164.237 61.316V62H159.215V61.316C159.635 61.304 159.971 61.268 160.223 61.208C160.487 61.136 160.691 61.01 160.835 60.83C160.979 60.65 161.075 60.398 161.123 60.074C161.171 59.738 161.195 59.288 161.195 58.724V51.416C161.195 50.912 161.171 50.498 161.123 50.174C161.087 49.838 161.003 49.574 160.871 49.382C160.751 49.19 160.571 49.058 160.331 48.986C160.091 48.902 159.779 48.848 159.395 48.824V48.14H163.697L168.233 58.778H168.305Z" fill="#E94E33"/>
</svg>
